HIERARCHY
ROOT Hips
{
  OFFSET 0.0000 94.0000 0.0000
  CHANNELS 6 Xposition Yposition Zposition Zrotation Xrotation Yrotation
}
JOINT LeftUpLeg
{
  OFFSET -9.0000 -3.5000 0.0000
  CHANNELS 3 Zrotation Xrotation Yrotation
}
JOINT RightUpLeg
{
  OFFSET 9.0000 -3.5000 0.0000
  CHANNELS 3 Zrotation Xrotation Yrotation
}
JOINT Spine
{
  OFFSET 0.0000 9.0000 0.0000
  CHANNELS 3 Zrotation Xrotation Yrotation
}
JOINT LeftLeg
{
  OFFSET 0.0000 -38.0000 0.5000
  CHANNELS 3 Zrotation Xrotation Yrotation
}
JOINT RightLeg
{
  OFFSET 0.0000 -38.0000 0.5000
  CHANNELS 3 Zrotation Xrotation Yrotation
}
JOINT Spine1
{
  OFFSET 0.0000 12.0000 0.0000
  CHANNELS 3 Zrotation Xrotation Yrotation
}
JOINT LeftFoot
{
  OFFSET 0.0000 -38.0000 -1.0000
  CHANNELS 3 Zrotation Xrotation Yrotation
}
JOINT RightFoot
{
  OFFSET 0.0000 -38.0000 -1.0000
  CHANNELS 3 Zrotation Xrotation Yrotation
}
JOINT Spine2
{
  OFFSET 0.0000 12.0000 0.0000
  CHANNELS 3 Zrotation Xrotation Yrotation
}
JOINT LeftToeBase
{
  OFFSET 0.0000 -5.0000 8.0000
  CHANNELS 3 Zrotation Xrotation Yrotation
}
JOINT RightToeBase
{
  OFFSET 0.0000 -5.0000 8.0000
  CHANNELS 3 Zrotation Xrotation Yrotation
}
JOINT Neck
{
  OFFSET 0.0000 20.0000 0.0000
  CHANNELS 3 Zrotation Xrotation Yrotation
}
JOINT LeftShoulder
{
  OFFSET -10.0000 16.0000 0.0000
  CHANNELS 3 Zrotation Xrotation Yrotation
}
JOINT RightShoulder
{
  OFFSET 10.0000 16.0000 0.0000
  CHANNELS 3 Zrotation Xrotation Yrotation
}
JOINT Head
{
  OFFSET 0.0000 10.0000 0.0000
  CHANNELS 3 Zrotation Xrotation Yrotation
}
JOINT LeftArm
{
  OFFSET -14.0000 0.0000 0.0000
  CHANNELS 3 Zrotation Xrotation Yrotation
}
JOINT RightArm
{
  OFFSET 14.0000 0.0000 0.0000
  CHANNELS 3 Zrotation Xrotation Yrotation
}
JOINT LeftForeArm
{
  OFFSET -26.0000 0.0000 0.0000
  CHANNELS 3 Zrotation Xrotation Yrotation
}
JOINT RightForeArm
{
  OFFSET 26.0000 0.0000 0.0000
  CHANNELS 3 Zrotation Xrotation Yrotation
}
JOINT LeftHand
{
  OFFSET -23.0000 0.0000 0.0000
  CHANNELS 3 Zrotation Xrotation Yrotation
}
JOINT RightHand
{
  OFFSET 23.0000 0.0000 0.0000
  CHANNELS 3 Zrotation Xrotation Yrotation
}
MOTION
Frames: 13
Frame Time: 0.041667
0.0000 94.0000 0.0000 0.0000 0.0000 0.0000 0.0000 0.0000 0.0000 0.0000 0.0000 0.0000 0.0000 0.0000 0.0000 0.0000 0.0000 0.0000 0.0000 0.0000 0.0000 0.0000 0.0000 0.0000 0.0000 0.0000 0.0000 0.0000 0.0000 0.0000 0.0000 0.0000 0.0000 0.0000 0.0000 0.0000 0.0000 0.0000 0.0000 0.0000 0.0000 0.0000 0.0000 0.0000 0.0000 0.0000 0.0000 0.0000 0.0000 0.0000 0.0000 0.0000 0.0000 0.0000 0.0000 0.0000 0.0000 0.0000 0.0000 0.0000 0.0000 0.0000 0.0000 0.0000 0.0000 0.0000 0.0000 0.0000 0.0000
0.0000 94.0000 0.0000 0.1500 0.5176 0.0000 1.8750 6.4705 0.0000 -1.8750 -6.4705 0.0000 0.2250 0.7765 0.0000 1.5000 5.1764 0.0000 -1.5000 -5.1764 0.0000 0.1500 0.5176 0.0000 0.7500 2.5882 0.0000 -0.7500 -2.5882 0.0000 0.1125 0.3882 0.0000 0.0750 0.2588 0.0000 -0.0750 -0.2588 0.0000 0.0750 0.2588 0.0000 0.0750 0.2588 0.0000 -0.0750 -0.2588 0.0000 0.0750 0.2588 0.0000 1.1250 3.8823 0.0000 -1.1250 -3.8823 0.0000 0.6000 2.0706 0.0000 -0.6000 -2.0706 0.0000 0.0750 0.2588 0.0000 -0.0750 -0.2588 0.0000
0.0000 94.0000 0.0000 0.2598 1.0000 0.0000 3.2476 12.5000 0.0000 -3.2476 -12.5000 0.0000 0.3897 1.5000 0.0000 2.5981 10.0000 0.0000 -2.5981 -10.0000 0.0000 0.2598 1.0000 0.0000 1.2990 5.0000 0.0000 -1.2990 -5.0000 0.0000 0.1949 0.7500 0.0000 0.1299 0.5000 0.0000 -0.1299 -0.5000 0.0000 0.1299 0.5000 0.0000 0.1299 0.5000 0.0000 -0.1299 -0.5000 0.0000 0.1299 0.5000 0.0000 1.9486 7.5000 0.0000 -1.9486 -7.5000 0.0000 1.0392 4.0000 0.0000 -1.0392 -4.0000 0.0000 0.1299 0.5000 0.0000 -0.1299 -0.5000 0.0000
0.0000 94.0000 0.0000 0.3000 1.4142 0.0000 3.7500 17.6777 0.0000 -3.7500 -17.6777 0.0000 0.4500 2.1213 0.0000 3.0000 14.1421 0.0000 -3.0000 -14.1421 0.0000 0.3000 1.4142 0.0000 1.5000 7.0711 0.0000 -1.5000 -7.0711 0.0000 0.2250 1.0607 0.0000 0.1500 0.7071 0.0000 -0.1500 -0.7071 0.0000 0.1500 0.7071 0.0000 0.1500 0.7071 0.0000 -0.1500 -0.7071 0.0000 0.1500 0.7071 0.0000 2.2500 10.6066 0.0000 -2.2500 -10.6066 0.0000 1.2000 5.6569 0.0000 -1.2000 -5.6569 0.0000 0.1500 0.7071 0.0000 -0.1500 -0.7071 0.0000
0.0000 94.0000 0.0000 0.2598 1.7321 0.0000 3.2476 21.6506 0.0000 -3.2476 -21.6506 0.0000 0.3897 2.5981 0.0000 2.5981 17.3205 0.0000 -2.5981 -17.3205 0.0000 0.2598 1.7321 0.0000 1.2990 8.6603 0.0000 -1.2990 -8.6603 0.0000 0.1949 1.2990 0.0000 0.1299 0.8660 0.0000 -0.1299 -0.8660 0.0000 0.1299 0.8660 0.0000 0.1299 0.8660 0.0000 -0.1299 -0.8660 0.0000 0.1299 0.8660 0.0000 1.9486 12.9904 0.0000 -1.9486 -12.9904 0.0000 1.0392 6.9282 0.0000 -1.0392 -6.9282 0.0000 0.1299 0.8660 0.0000 -0.1299 -0.8660 0.0000
0.0000 94.0000 0.0000 0.1500 1.9319 0.0000 1.8750 24.1481 0.0000 -1.8750 -24.1481 0.0000 0.2250 2.8978 0.0000 1.5000 19.3185 0.0000 -1.5000 -19.3185 0.0000 0.1500 1.9319 0.0000 0.7500 9.6593 0.0000 -0.7500 -9.6593 0.0000 0.1125 1.4489 0.0000 0.0750 0.9659 0.0000 -0.0750 -0.9659 0.0000 0.0750 0.9659 0.0000 0.0750 0.9659 0.0000 -0.0750 -0.9659 0.0000 0.0750 0.9659 0.0000 1.1250 14.4889 0.0000 -1.1250 -14.4889 0.0000 0.6000 7.7274 0.0000 -0.6000 -7.7274 0.0000 0.0750 0.9659 0.0000 -0.0750 -0.9659 0.0000
0.0000 94.0000 0.0000 0.0000 2.0000 0.0000 0.0000 25.0000 0.0000 -0.0000 -25.0000 0.0000 0.0000 3.0000 0.0000 0.0000 20.0000 0.0000 -0.0000 -20.0000 0.0000 0.0000 2.0000 0.0000 0.0000 10.0000 0.0000 -0.0000 -10.0000 0.0000 0.0000 1.5000 0.0000 0.0000 1.0000 0.0000 -0.0000 -1.0000 0.0000 0.0000 1.0000 0.0000 0.0000 1.0000 0.0000 -0.0000 -1.0000 0.0000 0.0000 1.0000 0.0000 0.0000 15.0000 0.0000 -0.0000 -15.0000 0.0000 0.0000 8.0000 0.0000 -0.0000 -8.0000 0.0000 0.0000 1.0000 0.0000 -0.0000 -1.0000 0.0000
0.0000 94.0000 0.0000 -0.1500 1.9319 0.0000 -1.8750 24.1481 0.0000 1.8750 -24.1481 0.0000 -0.2250 2.8978 0.0000 -1.5000 19.3185 0.0000 1.5000 -19.3185 0.0000 -0.1500 1.9319 0.0000 -0.7500 9.6593 0.0000 0.7500 -9.6593 0.0000 -0.1125 1.4489 0.0000 -0.0750 0.9659 0.0000 0.0750 -0.9659 0.0000 -0.0750 0.9659 0.0000 -0.0750 0.9659 0.0000 0.0750 -0.9659 0.0000 -0.0750 0.9659 0.0000 -1.1250 14.4889 0.0000 1.1250 -14.4889 0.0000 -0.6000 7.7274 0.0000 0.6000 -7.7274 0.0000 -0.0750 0.9659 0.0000 0.0750 -0.9659 0.0000
0.0000 94.0000 0.0000 -0.2598 1.7321 0.0000 -3.2476 21.6506 0.0000 3.2476 -21.6506 0.0000 -0.3897 2.5981 0.0000 -2.5981 17.3205 0.0000 2.5981 -17.3205 0.0000 -0.2598 1.7321 0.0000 -1.2990 8.6603 0.0000 1.2990 -8.6603 0.0000 -0.1949 1.2990 0.0000 -0.1299 0.8660 0.0000 0.1299 -0.8660 0.0000 -0.1299 0.8660 0.0000 -0.1299 0.8660 0.0000 0.1299 -0.8660 0.0000 -0.1299 0.8660 0.0000 -1.9486 12.9904 0.0000 1.9486 -12.9904 0.0000 -1.0392 6.9282 0.0000 1.0392 -6.9282 0.0000 -0.1299 0.8660 0.0000 0.1299 -0.8660 0.0000
0.0000 94.0000 0.0000 -0.3000 1.4142 0.0000 -3.7500 17.6777 0.0000 3.7500 -17.6777 0.0000 -0.4500 2.1213 0.0000 -3.0000 14.1421 0.0000 3.0000 -14.1421 0.0000 -0.3000 1.4142 0.0000 -1.5000 7.0711 0.0000 1.5000 -7.0711 0.0000 -0.2250 1.0607 0.0000 -0.1500 0.7071 0.0000 0.1500 -0.7071 0.0000 -0.1500 0.7071 0.0000 -0.1500 0.7071 0.0000 0.1500 -0.7071 0.0000 -0.1500 0.7071 0.0000 -2.2500 10.6066 0.0000 2.2500 -10.6066 0.0000 -1.2000 5.6569 0.0000 1.2000 -5.6569 0.0000 -0.1500 0.7071 0.0000 0.1500 -0.7071 0.0000
0.0000 94.0000 0.0000 -0.2598 1.0000 0.0000 -3.2476 12.5000 0.0000 3.2476 -12.5000 0.0000 -0.3897 1.5000 0.0000 -2.5981 10.0000 0.0000 2.5981 -10.0000 0.0000 -0.2598 1.0000 0.0000 -1.2990 5.0000 0.0000 1.2990 -5.0000 0.0000 -0.1949 0.7500 0.0000 -0.1299 0.5000 0.0000 0.1299 -0.5000 0.0000 -0.1299 0.5000 0.0000 -0.1299 0.5000 0.0000 0.1299 -0.5000 0.0000 -0.1299 0.5000 0.0000 -1.9486 7.5000 0.0000 1.9486 -7.5000 0.0000 -1.0392 4.0000 0.0000 1.0392 -4.0000 0.0000 -0.1299 0.5000 0.0000 0.1299 -0.5000 0.0000
0.0000 94.0000 0.0000 -0.1500 0.5176 0.0000 -1.8750 6.4705 0.0000 1.8750 -6.4705 0.0000 -0.2250 0.7765 0.0000 -1.5000 5.1764 0.0000 1.5000 -5.1764 0.0000 -0.1500 0.5176 0.0000 -0.7500 2.5882 0.0000 0.7500 -2.5882 0.0000 -0.1125 0.3882 0.0000 -0.0750 0.2588 0.0000 0.0750 -0.2588 0.0000 -0.0750 0.2588 0.0000 -0.0750 0.2588 0.0000 0.0750 -0.2588 0.0000 -0.0750 0.2588 0.0000 -1.1250 3.8823 0.0000 1.1250 -3.8823 0.0000 -0.6000 2.0706 0.0000 0.6000 -2.0706 0.0000 -0.0750 0.2588 0.0000 0.0750 -0.2588 0.0000
0.0000 94.0000 0.0000 -0.0000 0.0000 0.0000 -0.0000 0.0000 0.0000 0.0000 -0.0000 0.0000 -0.0000 0.0000 0.0000 -0.0000 0.0000 0.0000 0.0000 -0.0000 0.0000 -0.0000 0.0000 0.0000 -0.0000 0.0000 0.0000 0.0000 -0.0000 0.0000 -0.0000 0.0000 0.0000 -0.0000 0.0000 0.0000 0.0000 -0.0000 0.0000 -0.0000 0.0000 0.0000 -0.0000 0.0000 0.0000 0.0000 -0.0000 0.0000 -0.0000 0.0000 0.0000 -0.0000 0.0000 0.0000 0.0000 -0.0000 0.0000 -0.0000 0.0000 0.0000 0.0000 -0.0000 0.0000 -0.0000 0.0000 0.0000 0.0000 -0.0000 0.0000
